<svg width="29" height="29" viewBox="0 0 29 29" fill="none" xmlns="http://www.w3.org/2000/svg">
<path d="M13.2916 8.45832H15.7083V10.875H13.2916V8.45832Z" fill="#33342E"/>
<path d="M13.2916 13.2917H15.7083V20.5417H13.2916V13.2917Z" fill="#33342E"/>
<path fill-rule="evenodd" clip-rule="evenodd" d="M2.41663 14.5C2.41663 7.82999 7.82994 2.41666 14.5 2.41666C21.17 2.41666 26.5833 7.82999 26.5833 14.5C26.5833 21.17 21.17 26.5833 14.5 26.5833C7.82994 26.5833 2.41663 21.17 2.41663 14.5ZM4.83329 14.5C4.83329 19.8287 9.17117 24.1667 14.5 24.1667C19.8288 24.1667 24.1666 19.8287 24.1666 14.5C24.1666 9.17124 19.8288 4.83332 14.5 4.83332C9.17117 4.83332 4.83329 9.17124 4.83329 14.5Z" fill="#33342E"/>
</svg>
